<svg xmlns="http://www.w3.org/2000/svg" viewBox="0 0 512 512" role="img" aria-label="Logo blanco">
  <g id="q-tl">
    <path d="M 56.12 249.02 A 200 200 0 0 1 242.05 56.49 L 249.30 160.23 A 96 96 0 0 0 160.06 252.65 Z" fill="none" stroke="#FFFFFF" stroke-width="10" stroke-linejoin="round"></path>
    <path d="M 71.30 226.75 A 187 187 0 0 1 220.32 72.44 L 235.20 149.00 A 109 109 0 0 0 148.34 238.95 Z" fill="none" stroke="#FFFFFF" stroke-width="4.6" stroke-linecap="round" stroke-linejoin="round"></path>
    <path d="M 177.59 180.28 L 121.48 126.10" fill="none" stroke="#FFFFFF" stroke-width="4.2" stroke-linecap="round" stroke-linejoin="round"></path>
    <path d="M 137.19 141.27 L 139.89 138.75 L 142.79 136.55 L 145.83 134.71 L 148.94 133.27 L 152.04 132.26 L 155.07 131.68 L 157.96 131.53 L 160.65 131.80 L 163.10 132.47 L 165.25 133.51 L 167.09 134.89 L 168.59 136.57 L 169.74 138.50 L 170.54 140.65 L 170.99 142.97 L 171.10 145.41 L 170.89 147.94 L 170.37 150.52 L 169.56 153.11 L 168.48 155.67 L 167.15 158.18 L 165.59 160.61 L 163.83 162.93 L 161.88 165.11 L 159.77 167.14 L 157.51 168.98 L 155.14 170.62 L 152.68 172.03 L 150.15 173.20 L 147.59 174.10 L 145.04 174.71 L 142.51 175.01 L 140.07 174.99 L 137.74 174.62 L 135.56 173.89 L 133.59 172.81 L 131.86 171.37 L 130.42 169.58 L 129.30 167.46 L 128.55 165.04 L 128.18 162.36 L 128.23 159.47 L 128.71 156.42 L 129.61 153.29 L 130.94 150.13 L 132.67 147.03 L 134.77 144.05 L 137.19 141.27 Z" fill="none" stroke="#FFFFFF" stroke-width="4.2" stroke-linecap="round" stroke-linejoin="round"></path>
    <path d="M 85.17 228.94 A 172.96 172.96 0 0 1 92.96 198.26 L 140.02 214.93 A 123.03999999999999 123.03999999999999 0 0 0 134.47 236.75 Z" fill="none" stroke="#FFFFFF" stroke-width="4.2" stroke-linecap="round" stroke-linejoin="round"></path>
    <path d="M 192.61 95.07 A 172.96 172.96 0 0 1 223.00 86.22 L 232.52 135.22 A 123.03999999999999 123.03999999999999 0 0 0 210.91 141.52 Z" fill="none" stroke="#FFFFFF" stroke-width="4.2" stroke-linecap="round" stroke-linejoin="round"></path>
    <path d="M 97.50 230.90 A 160.48 160.48 0 0 1 99.76 219.35 L 124.06 225.05 A 135.52 135.52 0 0 0 122.15 234.80 Z" fill="none" stroke="#FFFFFF" stroke-width="4.2" stroke-linecap="round" stroke-linejoin="round"></path>
    <path d="M 213.92 101.13 A 160.48 160.48 0 0 1 225.38 98.47 L 230.14 122.97 A 135.52 135.52 0 0 0 220.47 125.22 Z" fill="none" stroke="#FFFFFF" stroke-width="4.2" stroke-linecap="round" stroke-linejoin="round"></path>
  </g>
  <g id="q-tr">
    <path d="M 269.95 56.49 A 200 200 0 0 1 443.94 187.60 L 346.21 223.17 A 96 96 0 0 0 262.70 160.23 Z" fill="none" stroke="#FFFFFF" stroke-width="10" stroke-linejoin="round"></path>
    <path d="M 291.68 72.44 A 187 187 0 0 1 422.62 171.10 L 353.12 206.52 A 109 109 0 0 0 276.80 149.00 Z" fill="none" stroke="#FFFFFF" stroke-width="4.6" stroke-linecap="round" stroke-linejoin="round"></path>
    <path d="M 301.24 156.83 L 333.61 85.86" fill="none" stroke="#FFFFFF" stroke-width="4.2" stroke-linecap="round" stroke-linejoin="round"></path>
    <path d="M 338.86 185.18 L 398.15 134.50" fill="none" stroke="#FFFFFF" stroke-width="4.2" stroke-linecap="round" stroke-linejoin="round"></path>
    <path d="M 317.42 121.35 A 148 148 0 0 1 368.51 159.84" fill="none" stroke="#FFFFFF" stroke-width="4.2" stroke-linecap="round" stroke-linejoin="round"></path>
    <path d="M 279.33 135.99 A 122.26 122.26 0 0 1 364.93 200.50" fill="none" stroke="#FFFFFF" stroke-width="3.6" stroke-linecap="round" stroke-linejoin="round" stroke-dasharray="8 7"></path>
    <path d="M 289.15 85.45 A 173.74 173.74 0 0 1 410.80 177.12" fill="none" stroke="#FFFFFF" stroke-width="3.6" stroke-linecap="round" stroke-linejoin="round" stroke-dasharray="8 7"></path>
    <path d="M 321.60 168.95 L 368.54 106.66" fill="none" stroke="#FFFFFF" stroke-width="5.4" stroke-linecap="round" stroke-linejoin="round"></path>
  </g>
  <g id="q-br">
    <path d="M 443.94 324.40 A 200 200 0 0 1 269.95 455.51 L 262.70 351.77 A 96 96 0 0 0 346.21 288.83 Z" fill="none" stroke="#FFFFFF" stroke-width="10" stroke-linejoin="round"></path>
    <path d="M 422.62 340.90 A 187 187 0 0 1 291.68 439.56 L 276.80 363.00 A 109 109 0 0 0 353.12 305.48 Z" fill="none" stroke="#FFFFFF" stroke-width="4.6" stroke-linecap="round" stroke-linejoin="round"></path>
    <path d="M 321.60 343.05 L 368.54 405.34" fill="none" stroke="#FFFFFF" stroke-width="4.2" stroke-linecap="round" stroke-linejoin="round"></path>
    <path d="M 353.05 384.79 L 351.45 385.84 L 349.73 386.66 L 347.94 387.25 L 346.10 387.59 L 344.26 387.67 L 342.46 387.50 L 340.72 387.08 L 339.08 386.42 L 337.56 385.54 L 336.20 384.45 L 335.00 383.19 L 333.99 381.78 L 333.17 380.25 L 332.56 378.63 L 332.15 376.95 L 331.95 375.23 L 331.95 373.52 L 332.15 371.83 L 332.55 370.20 L 333.13 368.64 L 333.88 367.19 L 334.80 365.85 L 335.88 364.65 L 337.09 363.61 L 338.43 362.73 L 339.87 362.03 L 341.41 361.51 L 343.02 361.19 L 344.67 361.06 L 346.35 361.13 L 348.03 361.40 L 349.68 361.87 L 351.27 362.54 L 352.78 363.40 L 354.17 364.43 L 355.41 365.64 L 356.49 367.00 L 357.37 368.50 L 358.04 370.11 L 358.47 371.81 L 358.65 373.56 L 358.58 375.35 L 358.25 377.14 L 357.66 378.88 L 356.83 380.56 L 355.77 382.12 L 354.50 383.54 L 353.05 384.79 Z" fill="none" stroke="#FFFFFF" stroke-width="4.2" stroke-linecap="round" stroke-linejoin="round"></path>
    <path d="M 401.77 330.27 A 163.6 163.6 0 0 1 389.49 350.58 L 364.03 332.55 A 132.4 132.4 0 0 0 373.97 316.11 Z" fill="none" stroke="#FFFFFF" stroke-width="4.2" stroke-linecap="round" stroke-linejoin="round"></path>
    <path d="M 310.13 410.39 A 163.6 163.6 0 0 1 287.22 416.59 L 281.26 385.97 A 132.4 132.4 0 0 0 299.80 380.94 Z" fill="none" stroke="#FFFFFF" stroke-width="4.2" stroke-linecap="round" stroke-linejoin="round"></path>
    <path d="M 413.17 345.28 L 411.49 348.03 L 409.66 350.67 L 407.68 353.16 L 405.56 355.51 L 403.33 357.69 L 401.00 359.70 L 398.59 361.51 L 396.11 363.12 L 393.59 364.53 L 391.03 365.72 L 388.46 366.70 L 385.90 367.46 L 383.36 368.00 L 380.85 368.32 L 378.40 368.44 L 376.00 368.34 L 373.69 368.04 L 371.46 367.54 L 369.32 366.86 L 367.29 366.01 L 365.36 364.98 L 363.55 363.80 L 361.86 362.48 L 360.29 361.02 L 358.84 359.44 L 357.51 357.75 L 356.31 355.96 L 355.23 354.08 L 354.27 352.13 L 353.42 350.12 L 352.70 348.06 L 352.09 345.95 L 351.59 343.81 L 351.20 341.65 L 350.92 339.47 L 350.74 337.29 L 350.66 335.11 L 350.69 332.94 L 350.81 330.79 L 351.04 328.66 L 351.35 326.56 L 351.77 324.49 L 352.27 322.45 L 352.87 320.45 L 353.57 318.50 L 354.35 316.59 L 355.23 314.73 L 356.20 312.92" fill="none" stroke="#FFFFFF" stroke-width="4.2" stroke-linecap="round" stroke-linejoin="round"></path>
    <path d="M 283.10 368.01 L 285.11 367.58 L 287.14 367.25 L 289.19 367.02 L 291.26 366.89 L 293.34 366.86 L 295.44 366.93 L 297.54 367.11 L 299.65 367.38 L 301.76 367.76 L 303.86 368.23 L 305.95 368.80 L 308.03 369.48 L 310.08 370.25 L 312.09 371.12 L 314.06 372.09 L 315.98 373.16 L 317.84 374.33 L 319.62 375.59 L 321.33 376.96 L 322.93 378.42 L 324.44 379.97 L 325.82 381.62 L 327.08 383.36 L 328.20 385.19 L 329.17 387.11 L 329.98 389.10 L 330.62 391.16 L 331.07 393.30 L 331.33 395.49 L 331.40 397.73 L 331.26 400.01 L 330.91 402.32 L 330.34 404.65 L 329.56 406.98 L 328.56 409.30 L 327.34 411.59 L 325.90 413.85 L 324.25 416.04 L 322.40 418.17 L 320.35 420.21 L 318.12 422.15 L 315.71 423.97 L 313.14 425.66 L 310.43 427.20 L 307.59 428.58 L 304.64 429.80 L 301.61 430.84 L 298.50 431.69" fill="none" stroke="#FFFFFF" stroke-width="4.2" stroke-linecap="round" stroke-linejoin="round"></path>
  </g>
  <g id="q-bl">
    <path d="M 242.05 455.51 A 200 200 0 0 1 56.12 262.98 L 160.06 259.35 A 96 96 0 0 0 249.30 351.77 Z" fill="none" stroke="#FFFFFF" stroke-width="10" stroke-linejoin="round"></path>
    <path d="M 220.32 439.56 A 187 187 0 0 1 71.30 285.25 L 148.34 273.05 A 109 109 0 0 0 235.20 363.00 Z" fill="none" stroke="#FFFFFF" stroke-width="4.6" stroke-linecap="round" stroke-linejoin="round"></path>
    <path d="M 233.27 372.95 A 119.14 119.14 0 0 1 138.33 274.64" fill="none" stroke="#FFFFFF" stroke-width="4.2" stroke-linecap="round" stroke-linejoin="round"></path>
    <path d="M 222.25 429.61 A 176.86 176.86 0 0 1 81.32 283.67" fill="none" stroke="#FFFFFF" stroke-width="4.2" stroke-linecap="round" stroke-linejoin="round"></path>
    <path d="M 203.03 362.72 L 177.36 414.42" fill="none" stroke="#FFFFFF" stroke-width="4.2" stroke-linecap="round" stroke-linejoin="round"></path>
    <path d="M 147.50 305.22 L 94.94 329.06" fill="none" stroke="#FFFFFF" stroke-width="4.2" stroke-linecap="round" stroke-linejoin="round"></path>
    <path d="M 190.19 388.57 A 148 148 0 0 1 121.22 317.14" fill="none" stroke="#FFFFFF" stroke-width="4.2" stroke-linecap="round" stroke-linejoin="round"></path>
    <path d="M 177.59 331.72 L 121.48 385.90" fill="none" stroke="#FFFFFF" stroke-width="5.4" stroke-linecap="round" stroke-linejoin="round"></path>
  </g>
</svg>